<svg xmlns="http://www.w3.org/2000/svg" aria-hidden="true" style="position:absolute;width:0;height:0;overflow:hidden"><defs><symbol id="icon-twitter" viewBox="0 0 110 110"><path d="M110 20.892c-4.091 1.794-8.449 2.984-12.994 3.561 4.675-2.791 8.243-7.177 9.921-12.464-4.359 2.599-9.171 4.434-14.3 5.459a22.599 22.599 0 0 0-16.473-7.136c-12.485 0-22.536 10.134-22.536 22.557 0 1.787.151 3.506.522 5.142-18.748-.914-35.337-9.9-46.482-23.588-1.946 3.376-3.087 7.239-3.087 11.399 0 7.81 4.022 14.733 10.017 18.741-3.623-.069-7.178-1.121-10.189-2.777v.247c0 10.959 7.817 20.061 18.067 22.158-1.836.502-3.836.743-5.912.743-1.444 0-2.901-.083-4.269-.385 2.922 8.931 11.213 15.496 21.072 15.709a45.312 45.312 0 0 1-27.961 9.618c-1.849 0-3.623-.082-5.397-.309 9.989 6.442 21.828 10.12 34.595 10.12 41.497 0 64.185-34.375 64.185-64.171 0-.997-.034-1.959-.082-2.915 4.476-3.176 8.236-7.143 11.302-11.708z"/></symbol><symbol id="icon-instagram" viewBox="0 0 110 110"><path d="M109.892 32.339c-.258-5.845-1.203-9.863-2.557-13.345a26.841 26.841 0 0 0-6.361-9.756 27.075 27.075 0 0 0-9.734-6.339C87.738 1.545 83.741.6 77.896.342c-5.888-.28-7.758-.344-22.692-.344S38.4.063 32.534.32c-5.845.258-9.863 1.204-13.344 2.557a26.837 26.837 0 0 0-9.756 6.361 27.075 27.075 0 0 0-6.339 9.735C1.741 22.476.796 26.472.538 32.317c-.28 5.888-.344 7.758-.344 22.692S.259 71.813.516 77.68c.258 5.844 1.204 9.863 2.558 13.344a27.138 27.138 0 0 0 6.36 9.756 27.08 27.08 0 0 0 9.734 6.339c3.503 1.354 7.499 2.3 13.345 2.557 5.866.259 7.736.322 22.67.322s16.804-.063 22.67-.322c5.844-.257 9.863-1.202 13.344-2.557a28.136 28.136 0 0 0 16.096-16.094c1.353-3.503 2.299-7.5 2.557-13.344.258-5.867.322-7.736.322-22.671s-.022-16.804-.28-22.67zM99.987 77.25c-.237 5.373-1.139 8.273-1.891 10.207a18.25 18.25 0 0 1-10.444 10.444c-1.934.752-4.856 1.655-10.207 1.891-5.802.258-7.542.322-22.219.322s-16.439-.063-22.22-.322c-5.372-.236-8.273-1.138-10.207-1.891a16.924 16.924 0 0 1-6.317-4.104 17.103 17.103 0 0 1-4.105-6.317c-.752-1.934-1.655-4.857-1.89-10.207-.259-5.802-.322-7.543-.322-22.22s.064-16.439.322-22.219c.236-5.372 1.138-8.273 1.89-10.207a16.707 16.707 0 0 1 4.127-6.318 17.08 17.08 0 0 1 6.317-4.104c1.934-.752 4.857-1.655 10.207-1.891 5.802-.258 7.543-.322 22.219-.322 14.698 0 16.438.065 22.22.322 5.372.237 8.273 1.139 10.207 1.891a16.92 16.92 0 0 1 6.317 4.104 17.105 17.105 0 0 1 4.104 6.318c.752 1.934 1.654 4.856 1.891 10.207.258 5.802.322 7.542.322 22.219s-.065 16.396-.322 22.198z"/><path fill="#f4f4fd" d="M55.204 26.752c-15.6 0-28.257 12.656-28.257 28.257s12.657 28.258 28.257 28.258c15.601 0 28.257-12.656 28.257-28.258S70.805 26.752 55.204 26.752zm0 46.588c-10.121 0-18.33-8.209-18.33-18.33s8.209-18.33 18.33-18.33c10.121 0 18.33 8.208 18.33 18.33s-8.208 18.33-18.33 18.33zM91.176 25.635a6.598 6.598 0 1 1-13.196-.002 6.598 6.598 0 0 1 13.196.002z" style="fill:var(--color1, #f4f4fd)"/></symbol><symbol id="icon-facebook" viewBox="0 0 110 110"><path d="M73.32 18.264h10.042V.774c-1.733-.238-7.691-.775-14.63-.775-14.479 0-24.397 9.107-24.397 25.845v15.405H28.357v19.552h15.978v49.198h19.589V60.806h15.331l2.434-19.552H63.92v-13.47c.005-5.651 1.526-9.52 9.4-9.52z"/></symbol><symbol id="icon-dots" viewBox="0 0 110 110"><path fill="#f8f8f8" d="M20.952 10.476A10.483 10.483 0 0 1 8.431 20.75 10.476 10.476 0 1 1 20.95 10.474zM55 0a10.47 10.47 0 0 0-9.678 6.468 10.479 10.479 0 0 0 7.635 14.284 10.479 10.479 0 0 0 12.521-10.274A10.477 10.477 0 0 0 55.001.002zm44.524 20.952a10.485 10.485 0 0 0 9.679-6.468A10.478 10.478 0 0 0 95.515.796a10.48 10.48 0 0 0-6.467 9.678A10.473 10.473 0 0 0 99.524 20.95zM10.476 89.048a10.472 10.472 0 0 0-10.274 12.52 10.476 10.476 0 0 0 20.752-2.044 10.473 10.473 0 0 0-10.476-10.476zm44.524 0a10.479 10.479 0 0 0-10.274 12.52 10.476 10.476 0 1 0 10.275-12.52zm44.524 0a10.481 10.481 0 0 0-9.679 6.467 10.478 10.478 0 0 0 13.688 13.688 10.476 10.476 0 0 0 3.399-17.087 10.473 10.473 0 0 0-7.408-3.068zM10.476 44.524a10.477 10.477 0 1 0-.001 20.953 10.477 10.477 0 0 0 .003-20.952zm44.524 0a10.477 10.477 0 1 0 0 20.953 10.477 10.477 0 0 0 .001-20.952zm44.524 0a10.477 10.477 0 1 0 4.009 20.156A10.48 10.48 0 0 0 110 55.002a10.48 10.48 0 0 0-10.476-10.477z" style="fill:var(--color2, #f8f8f8)"/></symbol><symbol id="icon-apple" viewBox="0 0 93 110"><path fill="#f8f8f8" d="M74.004 93.268c-5.29 5.127-11.065 4.318-16.624 1.889-5.883-2.483-11.281-2.591-17.488 0-7.772 3.346-11.875 2.375-16.516-1.889C-2.964 66.119.923 24.774 30.825 23.263c7.286.378 12.36 3.994 16.624 4.318 6.369-1.295 12.468-5.02 19.269-4.534 8.15.648 14.303 3.886 18.352 9.715-16.84 10.093-12.846 32.277 2.591 38.484-3.077 8.096-7.071 16.138-13.71 22.076l.054-.054zM46.909 22.939C46.099 10.903 55.869.971 67.096 0c1.565 13.925-12.63 24.289-20.187 22.939z" style="fill:var(--color2, #f8f8f8)"/></symbol><symbol id="icon-arrow-down" viewBox="0 0 19 110"><path fill="none" stroke="#fff" stroke-width="2.222" d="M8.889 108.899V8.888" style="stroke:var(--color3, #fff)"/><path fill="#fff" d="M8.659 0 0 14.444h18.307L8.659 0z" opacity=".7" style="fill:var(--color3, #fff)"/></symbol><symbol id="icon-arrow-up" viewBox="0 0 19 110"><path fill="none" stroke="#fff" stroke-width="2.222" d="M8.889 108.899V8.888" style="stroke:var(--color3, #fff)"/><path fill="#fff" d="M8.659 0 0 14.444h18.307L8.659 0z" opacity=".7" style="fill:var(--color3, #fff)"/></symbol></defs></svg>