<svg xmlns="http://www.w3.org/2000/svg" width="226" height="147" fill="none"><path fill="#fff" d="M13.466 9h-1.761a3.66 3.66 0 0 0-1.485-2.301 3.98 3.98 0 0 0-1.214-.597 4.85 4.85 0 0 0-1.392-.199c-.881 0-1.679.223-2.394.668-.71.445-1.276 1.1-1.697 1.967-.417.867-.625 1.93-.625 3.19 0 1.259.208 2.322.625 3.188.421.867.987 1.522 1.697 1.968a4.437 4.437 0 0 0 2.394.667c.483 0 .947-.066 1.392-.199.445-.132.85-.329 1.214-.59.37-.264.682-.589.938-.972a3.73 3.73 0 0 0 .546-1.335h1.762a5.868 5.868 0 0 1-.724 1.995 5.457 5.457 0 0 1-1.307 1.499 5.724 5.724 0 0 1-1.755.93 6.54 6.54 0 0 1-2.066.32c-1.24 0-2.344-.303-3.31-.91-.966-.605-1.726-1.467-2.28-2.585-.554-1.117-.83-2.443-.83-3.977 0-1.534.276-2.86.83-3.977.554-1.117 1.314-1.98 2.28-2.585.966-.606 2.07-.91 3.31-.91.734 0 1.422.107 2.066.32a5.641 5.641 0 0 1 1.755.938c.52.407.956.904 1.306 1.491.35.583.592 1.248.725 1.996Zm7.05 10.227c-.984 0-1.848-.234-2.592-.703-.738-.469-1.316-1.124-1.733-1.967-.411-.843-.617-1.828-.617-2.955 0-1.136.206-2.128.617-2.976.417-.847.995-1.505 1.733-1.974.744-.469 1.608-.703 2.593-.703.985 0 1.846.234 2.585.703.743.469 1.32 1.127 1.733 1.974.416.848.625 1.84.625 2.976 0 1.127-.209 2.112-.625 2.955-.412.843-.99 1.498-1.733 1.967-.739.469-1.6.703-2.585.703Zm0-1.505c.749 0 1.364-.192 1.847-.576.483-.383.84-.887 1.073-1.513a5.792 5.792 0 0 0 .348-2.03c0-.73-.116-1.41-.348-2.04a3.436 3.436 0 0 0-1.073-1.526c-.483-.388-1.098-.582-1.846-.582s-1.364.194-1.847.582c-.483.388-.84.897-1.072 1.527a5.85 5.85 0 0 0-.348 2.038c0 .73.116 1.406.348 2.031.232.626.59 1.13 1.072 1.513.483.384 1.099.576 1.847.576Zm9.179-13.267V19h-1.677V4.455h1.677Zm7.501 14.772c-.984 0-1.849-.234-2.592-.703-.739-.469-1.316-1.124-1.733-1.967-.412-.843-.618-1.828-.618-2.955 0-1.136.206-2.128.618-2.976.417-.847.994-1.505 1.733-1.974.743-.469 1.608-.703 2.592-.703.985 0 1.847.234 2.586.703.743.469 1.32 1.127 1.733 1.974.416.848.625 1.84.625 2.976 0 1.127-.209 2.112-.625 2.955-.412.843-.99 1.498-1.733 1.967-.739.469-1.6.703-2.586.703Zm0-1.505c.748 0 1.364-.192 1.847-.576.483-.383.84-.887 1.072-1.513a5.792 5.792 0 0 0 .348-2.03c0-.73-.116-1.41-.348-2.04a3.436 3.436 0 0 0-1.072-1.526c-.483-.388-1.099-.582-1.847-.582s-1.363.194-1.846.582c-.483.388-.84.897-1.073 1.527a5.851 5.851 0 0 0-.348 2.038c0 .73.116 1.406.348 2.031.232.626.59 1.13 1.073 1.513.483.384 1.098.576 1.846.576ZM44.698 19V8.09h1.62V9.74h.113c.199-.54.559-.978 1.08-1.314a3.177 3.177 0 0 1 1.761-.505c.123 0 .277.003.462.008.184.004.324.011.419.02v1.705a4.97 4.97 0 0 0-.39-.064 3.844 3.844 0 0 0-.633-.05c-.53 0-1.004.112-1.42.335-.412.217-.74.52-.98.909a2.45 2.45 0 0 0-.356 1.314V19h-1.676Zm15.169-8.466-1.506.426a2.796 2.796 0 0 0-.419-.731 2.033 2.033 0 0 0-.739-.597c-.312-.156-.712-.234-1.2-.234-.667 0-1.224.154-1.669.461-.44.303-.66.69-.66 1.158 0 .417.151.746.454.987.303.242.777.443 1.42.604l1.62.398c.975.236 1.702.599 2.18 1.086.479.483.718 1.106.718 1.868a2.77 2.77 0 0 1-.54 1.676c-.355.493-.852.881-1.492 1.165-.639.284-1.382.426-2.23.426-1.112 0-2.033-.241-2.763-.724-.729-.483-1.19-1.189-1.384-2.117l1.59-.397c.152.587.438 1.027.86 1.32.426.294.982.441 1.669.441.781 0 1.401-.166 1.86-.497.465-.336.697-.739.697-1.207 0-.38-.133-.697-.398-.952-.265-.26-.672-.455-1.222-.583l-1.818-.426c-.999-.237-1.733-.604-2.202-1.1-.463-.502-.695-1.13-.695-1.883 0-.615.172-1.16.518-1.633.35-.474.826-.845 1.428-1.115.606-.27 1.292-.405 2.06-.405 1.079 0 1.926.237 2.542.71a3.828 3.828 0 0 1 1.32 1.875Z"/><circle cx="20" cy="67" r="20" fill="#FD3544"/><circle cx="20" cy="127" r="20" fill="#92DD96"/><circle cx="110" cy="127" r="20" fill="#fff"/><circle cx="110" cy="67" r="20" fill="#40BC7A"/><circle cx="200" cy="67" r="20" fill="#1E1E1E"/><path fill="#fff" d="M181.594 117.755v-17.548h1.124v17.548h-1.124Zm3.783-12.284a2.153 2.153 0 0 0-1-1.618c-.585-.384-1.303-.575-2.153-.575-.621 0-1.165.1-1.631.301-.462.201-.823.478-1.083.83a1.984 1.984 0 0 0-.384 1.199c0 .375.089.697.267.967.183.265.416.486.699.665.284.173.581.317.891.431.311.11.597.199.857.268l1.426.384c.366.096.772.228 1.22.397.453.169.884.4 1.296.693a3.52 3.52 0 0 1 1.028 1.11c.27.452.404 1.008.404 1.666a3.69 3.69 0 0 1-.596 2.056c-.393.613-.969 1.099-1.727 1.46-.754.361-1.671.542-2.749.542-1.005 0-1.876-.162-2.612-.487-.731-.324-1.307-.777-1.727-1.357-.416-.581-.651-1.255-.706-2.022h1.755c.045.53.224.968.534 1.316.316.343.713.598 1.193.768a4.84 4.84 0 0 0 1.563.246c.649 0 1.231-.105 1.748-.315.516-.215.925-.512 1.227-.891.301-.384.452-.832.452-1.344 0-.466-.13-.845-.39-1.138a2.87 2.87 0 0 0-1.029-.712 10.775 10.775 0 0 0-1.377-.48l-1.728-.494c-1.097-.315-1.965-.765-2.605-1.35-.639-.585-.959-1.351-.959-2.297 0-.786.212-1.471.637-2.056.43-.59 1.005-1.047 1.728-1.371.726-.329 1.537-.494 2.433-.494.905 0 1.709.163 2.413.487.704.32 1.261.759 1.672 1.316.416.558.636 1.191.658 1.899h-1.645Zm8.773 10.721c-.805 0-1.529-.16-2.173-.48a4.024 4.024 0 0 1-1.549-1.316 3.587 3.587 0 0 1-.638-1.906h1.645c.064.636.352 1.161.864 1.577.516.411 1.133.617 1.851.617.576 0 1.087-.135 1.535-.405a2.845 2.845 0 0 0 1.063-1.11 3.3 3.3 0 0 0 .39-1.611c0-.612-.134-1.158-.404-1.638a2.968 2.968 0 0 0-1.097-1.145c-.466-.279-.998-.42-1.597-.425a4.383 4.383 0 0 0-1.323.199c-.452.132-.825.304-1.117.514l-1.591-.192.85-6.91h7.294v1.508h-5.868l-.493 4.141h.082a3.657 3.657 0 0 1 1.083-.569 4.102 4.102 0 0 1 1.357-.226c.859 0 1.625.205 2.297.617a4.307 4.307 0 0 1 1.59 1.672c.388.708.583 1.517.583 2.427 0 .895-.201 1.695-.604 2.399a4.41 4.41 0 0 1-1.645 1.659c-.699.402-1.494.603-2.385.603Zm7.028-3.071v-1.398l6.169-9.762h1.014v2.167h-.685l-4.661 7.375v.11h8.308v1.508h-10.145Zm6.608 2.879v-14.039h1.617V116h-1.617Zm10.575-14.231a5.033 5.033 0 0 1 1.727.33c.576.214 1.102.571 1.577 1.069.475.493.857 1.167 1.145 2.022.287.855.431 1.926.431 3.215 0 1.247-.118 2.356-.356 3.324-.233.965-.571 1.778-1.015 2.441-.438.662-.973 1.165-1.604 1.508-.626.343-1.334.514-2.125.514-.786 0-1.487-.155-2.104-.466a4.144 4.144 0 0 1-1.508-1.309 4.576 4.576 0 0 1-.747-1.954h1.672c.151.644.451 1.177.898 1.597.453.416 1.049.624 1.789.624 1.084 0 1.938-.473 2.564-1.419.631-.946.946-2.283.946-4.01h-.11a4.28 4.28 0 0 1-.911.994 4.022 4.022 0 0 1-2.543.87 4.259 4.259 0 0 1-2.214-.596 4.518 4.518 0 0 1-1.604-1.652c-.398-.704-.597-1.508-.597-2.413 0-.859.192-1.645.576-2.358a4.454 4.454 0 0 1 1.631-1.714c.704-.425 1.531-.63 2.482-.617Zm0 1.509c-.576 0-1.095.143-1.556.431-.457.284-.82.668-1.09 1.152a3.248 3.248 0 0 0-.398 1.597c0 .585.128 1.117.384 1.597.261.476.615.855 1.063 1.138.452.279.966.418 1.542.418.434 0 .839-.084 1.213-.253.375-.174.702-.409.981-.706.283-.302.504-.642.664-1.022.16-.384.24-.783.24-1.199 0-.549-.132-1.063-.397-1.543a3.17 3.17 0 0 0-1.083-1.165 2.804 2.804 0 0 0-1.563-.445Z"/><rect width="49.062" height="24.977" x="176" y="121.597" fill="#fff" fill-opacity=".8" rx="5.59"/><path fill="#F7761E" d="M188.497 138.951v-10.977h3.838c.765 0 1.395.132 1.892.397.497.26.867.612 1.11 1.055.243.44.364.928.364 1.464 0 .471-.084.861-.252 1.168-.164.307-.382.55-.654.729a2.976 2.976 0 0 1-.873.397v.107c.335.021.673.139 1.013.354.339.214.623.521.852.921.228.401.343.89.343 1.469 0 .55-.125 1.045-.375 1.485-.25.439-.645.788-1.185 1.045-.539.257-1.242.386-2.106.386h-3.967Zm1.33-1.179h2.637c.868 0 1.484-.168 1.849-.504.368-.34.552-.751.552-1.233a1.96 1.96 0 0 0-.284-1.029 2.057 2.057 0 0 0-.809-.761c-.351-.193-.765-.29-1.244-.29h-2.701v3.817Zm0-4.974h2.465c.4 0 .761-.079 1.083-.236.325-.157.582-.379.772-.665.193-.286.289-.621.289-1.007a1.67 1.67 0 0 0-.504-1.228c-.336-.339-.868-.509-1.597-.509h-2.508v3.645Zm13.504 2.787v-4.867h1.265v8.233h-1.265v-1.394h-.086a2.704 2.704 0 0 1-.9 1.067c-.408.289-.922.434-1.544.434a2.75 2.75 0 0 1-1.372-.338c-.4-.228-.715-.571-.944-1.029-.228-.461-.343-1.041-.343-1.742v-5.231h1.265v5.146c0 .6.168 1.079.504 1.436.34.357.772.536 1.297.536.315 0 .634-.08.96-.241.328-.161.604-.408.825-.74.225-.332.338-.756.338-1.27Zm4.396 6.453c-.214 0-.405-.018-.573-.054a1.537 1.537 0 0 1-.349-.096l.322-1.115c.307.079.579.107.815.086a.984.984 0 0 0 .627-.316c.185-.186.355-.488.509-.906l.236-.643-3.045-8.276h1.372l2.273 6.561H210l2.272-6.561h1.372l-3.494 9.433a3.55 3.55 0 0 1-.584 1.056 2.176 2.176 0 0 1-.81.627 2.494 2.494 0 0 1-1.029.204Z"/></svg>