<svg width="33" height="33" viewBox="0 0 33 33" fill="none" xmlns="http://www.w3.org/2000/svg">
<path d="M6.28572 3.14286C6.28572 3.76446 6.10139 4.3721 5.75605 4.88894C5.41071 5.40578 4.91986 5.8086 4.34558 6.04648C3.7713 6.28436 3.13937 6.34659 2.52972 6.22533C1.92006 6.10406 1.36006 5.80473 0.920523 5.36519C0.480987 4.92566 0.181658 4.36565 0.0603905 3.756C-0.0608773 3.14635 0.00136174 2.51442 0.239237 1.94014C0.477113 1.36586 0.879941 0.87501 1.39678 0.529669C1.91362 0.184327 2.52126 1.69367e-06 3.14286 1.69367e-06C3.9764 1.69367e-06 4.77579 0.331123 5.36519 0.920523C5.95459 1.50992 6.28572 2.30932 6.28572 3.14286ZM16.5 1.69367e-06C15.8784 1.69367e-06 15.2708 0.184327 14.7539 0.529669C14.2371 0.87501 13.8343 1.36586 13.5964 1.94014C13.3585 2.51442 13.2963 3.14635 13.4175 3.756C13.5388 4.36565 13.8381 4.92566 14.2777 5.36519C14.7172 5.80473 15.2772 6.10406 15.8869 6.22533C16.4965 6.34659 17.1284 6.28436 17.7027 6.04648C18.277 5.8086 18.7678 5.40578 19.1132 4.88894C19.4585 4.3721 19.6429 3.76446 19.6429 3.14286C19.6429 2.30932 19.3117 1.50992 18.7223 0.920523C18.1329 0.331123 17.3335 1.69367e-06 16.5 1.69367e-06ZM29.8571 6.28572C30.4787 6.28572 31.0864 6.10139 31.6032 5.75605C32.1201 5.41071 32.5229 4.91986 32.7608 4.34558C32.9986 3.7713 33.0609 3.13937 32.9396 2.52972C32.8183 1.92006 32.519 1.36006 32.0795 0.920523C31.6399 0.480987 31.0799 0.181658 30.4703 0.0603905C29.8606 -0.0608773 29.2287 0.00136174 28.6544 0.239237C28.0801 0.477113 27.5893 0.879941 27.244 1.39678C26.8986 1.91362 26.7143 2.52126 26.7143 3.14286C26.7143 3.9764 27.0454 4.77579 27.6348 5.36519C28.2242 5.95459 29.0236 6.28572 29.8571 6.28572ZM3.14286 26.7143C2.52126 26.7143 1.91362 26.8986 1.39678 27.244C0.879941 27.5893 0.477113 28.0801 0.239237 28.6544C0.00136174 29.2287 -0.0608773 29.8606 0.0603905 30.4703C0.181658 31.0799 0.480987 31.6399 0.920523 32.0795C1.36006 32.519 1.92006 32.8183 2.52972 32.9396C3.13937 33.0609 3.7713 32.9986 4.34558 32.7608C4.91986 32.5229 5.41071 32.1201 5.75605 31.6032C6.10139 31.0864 6.28572 30.4787 6.28572 29.8571C6.28572 29.0236 5.95459 28.2242 5.36519 27.6348C4.77579 27.0454 3.9764 26.7143 3.14286 26.7143ZM16.5 26.7143C15.8784 26.7143 15.2708 26.8986 14.7539 27.244C14.2371 27.5893 13.8343 28.0801 13.5964 28.6544C13.3585 29.2287 13.2963 29.8606 13.4175 30.4703C13.5388 31.0799 13.8381 31.6399 14.2777 32.0795C14.7172 32.519 15.2772 32.8183 15.8869 32.9396C16.4965 33.0609 17.1284 32.9986 17.7027 32.7608C18.277 32.5229 18.7678 32.1201 19.1132 31.6032C19.4585 31.0864 19.6429 30.4787 19.6429 29.8571C19.6429 29.0236 19.3117 28.2242 18.7223 27.6348C18.1329 27.0454 17.3335 26.7143 16.5 26.7143ZM29.8571 26.7143C29.2355 26.7143 28.6279 26.8986 28.1111 27.244C27.5942 27.5893 27.1914 28.0801 26.9535 28.6544C26.7156 29.2287 26.6534 29.8606 26.7747 30.4703C26.8959 31.0799 27.1953 31.6399 27.6348 32.0795C28.0743 32.519 28.6343 32.8183 29.244 32.9396C29.8537 33.0609 30.4856 32.9986 31.0599 32.7608C31.6341 32.5229 32.125 32.1201 32.4703 31.6032C32.8157 31.0864 33 30.4787 33 29.8571C33 29.0236 32.6689 28.2242 32.0795 27.6348C31.4901 27.0454 30.6907 26.7143 29.8571 26.7143ZM3.14286 13.3571C2.52126 13.3571 1.91362 13.5415 1.39678 13.8868C0.879941 14.2322 0.477113 14.723 0.239237 15.2973C0.00136174 15.8716 -0.0608773 16.5035 0.0603905 17.1131C0.181658 17.7228 0.480987 18.2828 0.920523 18.7223C1.36006 19.1619 1.92006 19.4612 2.52972 19.5825C3.13937 19.7037 3.7713 19.6415 4.34558 19.4036C4.91986 19.1657 5.41071 18.7629 5.75605 18.2461C6.10139 17.7292 6.28572 17.1216 6.28572 16.5C6.28572 15.6665 5.95459 14.8671 5.36519 14.2777C4.77579 13.6883 3.9764 13.3571 3.14286 13.3571ZM16.5 13.3571C15.8784 13.3571 15.2708 13.5415 14.7539 13.8868C14.2371 14.2322 13.8343 14.723 13.5964 15.2973C13.3585 15.8716 13.2963 16.5035 13.4175 17.1131C13.5388 17.7228 13.8381 18.2828 14.2777 18.7223C14.7172 19.1619 15.2772 19.4612 15.8869 19.5825C16.4965 19.7037 17.1284 19.6415 17.7027 19.4036C18.277 19.1657 18.7678 18.7629 19.1132 18.2461C19.4585 17.7292 19.6429 17.1216 19.6429 16.5C19.6429 15.6665 19.3117 14.8671 18.7223 14.2777C18.1329 13.6883 17.3335 13.3571 16.5 13.3571ZM29.8571 13.3571C29.2355 13.3571 28.6279 13.5415 28.1111 13.8868C27.5942 14.2322 27.1914 14.723 26.9535 15.2973C26.7156 15.8716 26.6534 16.5035 26.7747 17.1131C26.8959 17.7228 27.1953 18.2828 27.6348 18.7223C28.0743 19.1619 28.6343 19.4612 29.244 19.5825C29.8537 19.7037 30.4856 19.6415 31.0599 19.4036C31.6341 19.1657 32.125 18.7629 32.4703 18.2461C32.8157 17.7292 33 17.1216 33 16.5C33 15.6665 32.6689 14.8671 32.0795 14.2777C31.4901 13.6883 30.6907 13.3571 29.8571 13.3571Z" fill="#F8F8F8"/>
</svg>
